# xmcd CD database file
#
# Track frame offsets:
#	150
#	11765
#	24745
#	37983
#	52237
#	66014
#	78487
#	93442
#	106829
#	120089
#	135941
#	147247
#	160970
#	174619
#	188480
#	209788
#	223134
#	235107
#	248426
#	259579
#
# Disc length: 3637 seconds
#
# Revision: 13
# Processed by: cddbd v1.5.2PL0 Copyright (c) Steve Scherf et al.
# Submitted via: CDex 1.91
#
DISCID=0f0e3314
DTITLE=Various Artist - Do you like jazz CD 02 - Charlie Parker and Coleman Hawkins
DYEAR=2007
DGENRE=Jazz
TTITLE0=Charlie Parker - Donna Lee
TTITLE1=Charlie Parker - Yardbird Suite
TTITLE2=Charlie Parker - ko-Ko
TTITLE3=Charlie Parker - Hot House
TTITLE4=Charlie Parker - Dark Shadows
TTITLE5=Charlie Parker - Summertime
TTITLE6=Charlie Parker - They Can't Take That Away From Me
TTITLE7=Charlie Parker - Dexterity
TTITLE8=Charlie Parker - A Night In Tunisia
TTITLE9=Charlie Parker - Easy To Love
TTITLE10=Coleman Hawkins - After You've Gone
TTITLE11=Coleman Hawkins - Heneysuckle Rose
TTITLE12=Coleman Hawkins - Body And Soul
TTITLE13=Coleman Hawkins - There's A Small Hotel
TTITLE14=Coleman Hawkins - On The Sunny Side Of The Street
TTITLE15=Coleman Hawkins - In A Shanty In Old Shanty Town
TTITLE16=Coleman Hawkins - 'S Wonderful
TTITLE17=Coleman Hawkins - Lullaby
TTITLE18=Coleman Hawkins - Star Dust
TTITLE19=Coleman Hawkins - Beyond The Blue Horizon
EXTD=YEAR: 2007
EXTT0=
EXTT1=
EXTT2=
EXTT3=
EXTT4=
EXTT5=
EXTT6=
EXTT7=
EXTT8=
EXTT9=
EXTT10=
EXTT11=
EXTT12=
EXTT13=
EXTT14=
EXTT15=
EXTT16=
EXTT17=
EXTT18=
EXTT19=
PLAYORDER=
